# xmcd CD database file
#
# Track frame offsets:
#	150
#	23423
#	38421
#	57163
#	62585
#	86087
#	103436
#	134275
#	157027
#
# Disc length: 2294 seconds
#
# Revision: 0
# Processed by: cddbd v1.5.1PL2 Copyright (c) Steve Scherf et al.
# Submitted via: CD2WAV32(JP) R3.22
#
DISCID=6e08f409
DTITLE=勝手にしやがれ - フィンセント・ブルー
DYEAR=2004
DGENRE=Jazz
TTITLE0=35゜5
TTITLE1=円軌道の外
TTITLE2=ロミオ
TTITLE3=シルヴェット・デイヴィッド
TTITLE4=ブコウスキーの夢
TTITLE5=404(Alternate Take)
TTITLE6=シルヴェット
TTITLE7=コメディー(Alternate Take)
TTITLE8=オーヴェール
EXTD=
EXTT0=
EXTT1=
EXTT2=
EXTT3=
EXTT4=
EXTT5=
EXTT6=
EXTT7=
EXTT8=
PLAYORDER=
